# xmcd
#
# Track frame offsets:
#	150
#	17537
#	33060
#	49140
#	61232
#	78382
#	86130
#	94370
#	109672
#	120750
#	139232
#	152757
#	166470
#	181695
#	192520
#	205760
#	229302
#
# Disc length: 3269 seconds
# Revision: 7
# Processed by: cddbd v1.5.2PL0 Copyright (c) Steve Scherf et al.
# Submitted via: dBpowerAMP V12.0
#
DISCID=d70cc311
DTITLE=Various Artist - Johnny Cash At San Quentin
DYEAR=2006
DGENRE=Country
TTITLE0=Carl Perkins - Blue Suede Shoes
TTITLE1=The Statler Brothers - Flowers on the Wall
TTITLE2=The Carter Family - The Last Thing on My Mind
TTITLE3=June Carter Cash - June Carter Cash Talks to the Audience
TTITLE4=The Carter Family - Wildwood Flower
TTITLE5=Johnny Cash - Big River
TTITLE6=Johnny Cash - I Still Miss Someone
TTITLE7=Johnny Cash - Wreck of the Old 97
TTITLE8=Johnny Cash - I Walk the Like
TTITLE9=Johnny Cash - Medley: The Long Black Veil • Give My Love to Rose
TTITLE10=Johnny Cash - Folsom Prison Blues
TTITLE11=Johnny Cash - Orange Blossom Special
TTITLE12=Johnny Cash • June Carter Cash - Jackson
TTITLE13=Johnny Cash • June Carter Cash - Darlin' Companion
TTITLE14=The Carter Family - Break My Mind
TTITLE15=Johnny Cash - I Don't Know Where I'm Bound
TTITLE16=Johnny Cash - Starkville City Jail
EXTD=
EXTT0=
EXTT1=
EXTT2=
EXTT3=
EXTT4=
EXTT5=
EXTT6=
EXTT7=
EXTT8=
EXTT9=
EXTT10=
EXTT11=
EXTT12=
EXTT13=
EXTT14=
EXTT15=
EXTT16=
PLAYORDER=
